<svg width="55" height="46" viewBox="0 0 55 46" fill="none" xmlns="http://www.w3.org/2000/svg">
<path d="M0.831299 26.1669L42.854 0.965814L39.5065 15.7997L54.1688 19.8331L12.1461 45.0342L0.831299 26.1669Z" fill="#F73D27"/>
<path d="M14.2849 25.731L12.3291 26.9039L15.1307 31.5756L15.0634 31.616L9.07072 28.8579L7.38414 29.8694L12.2467 37.9776L14.2064 36.8024L11.4 32.1227L11.4515 32.0918L17.4846 34.8365L19.1474 33.8393L14.2849 25.731ZM20.3797 33.1003L26.0333 29.7098L25.0789 28.1182L21.385 30.3334L20.3854 28.6666L23.7903 26.6247L22.8334 25.0292L19.4286 27.0711L18.4314 25.4083L22.1252 23.1931L21.1708 21.6015L15.5172 24.992L20.3797 33.1003ZM29.2046 27.808L31.0891 26.6778L29.6012 20.8845L29.6645 20.8465L34.0743 24.8876L35.9628 23.7551L33.4559 14.2341L31.2942 15.5304L33.2603 21.5915L33.193 21.6319L28.602 17.145L26.8363 18.2039L28.625 24.3552L28.5577 24.3955L24.148 19.816L21.9824 21.1148L29.2046 27.808Z" fill="white"/>
</svg>
